<mxGraphModel dx="1807" dy="1194" grid="1" gridSize="10" guides="1" tooltips="1" connect="1" arrows="1" fold="1" page="1" pageScale="1" pageWidth="827" pageHeight="1169" math="0" shadow="0"><root><mxCell id="WIyWlLk6GJQsqaUBKTNV-0"/><mxCell id="WIyWlLk6GJQsqaUBKTNV-1" parent="WIyWlLk6GJQsqaUBKTNV-0"/><mxCell id="MpQF8HATD3lKGOXZfI80-11" value="gitcon.h" style="swimlane;fontStyle=1;align=center;verticalAlign=top;childLayout=stackLayout;horizontal=1;startSize=26;horizontalStack=0;resizeParent=1;resizeParentMax=0;resizeLast=0;collapsible=1;marginBottom=0;" parent="WIyWlLk6GJQsqaUBKTNV-1" vertex="1"><mxGeometry x="240" y="160" width="360" height="264" as="geometry"/></mxCell><mxCell id="MpQF8HATD3lKGOXZfI80-19" value="gitcon_handle_t: struct*" style="swimlane;fontStyle=0;childLayout=stackLayout;horizontal=1;startSize=26;fillColor=none;horizontalStack=0;resizeParent=1;resizeParentMax=0;resizeLast=0;collapsible=1;marginBottom=0;" parent="MpQF8HATD3lKGOXZfI80-11" vertex="1"><mxGeometry y="26" width="360" height="104" as="geometry"/></mxCell><mxCell id="MpQF8HATD3lKGOXZfI80-20" value="+ sampler: i2s_sampler_t" style="text;strokeColor=none;fillColor=none;align=left;verticalAlign=top;spacingLeft=4;spacingRight=4;overflow=hidden;rotatable=0;points=[[0,0.5],[1,0.5]];portConstraint=eastwest;" parent="MpQF8HATD3lKGOXZfI80-19" vertex="1"><mxGeometry y="26" width="360" height="26" as="geometry"/></mxCell><mxCell id="MpQF8HATD3lKGOXZfI80-21" value="+ midi_handle: midi_handle_t" style="text;strokeColor=none;fillColor=none;align=left;verticalAlign=top;spacingLeft=4;spacingRight=4;overflow=hidden;rotatable=0;points=[[0,0.5],[1,0.5]];portConstraint=eastwest;" parent="MpQF8HATD3lKGOXZfI80-19" vertex="1"><mxGeometry y="52" width="360" height="26" as="geometry"/></mxCell><mxCell id="MpQF8HATD3lKGOXZfI80-22" value="+ midi_queue: QueueHandle_t" style="text;strokeColor=none;fillColor=none;align=left;verticalAlign=top;spacingLeft=4;spacingRight=4;overflow=hidden;rotatable=0;points=[[0,0.5],[1,0.5]];portConstraint=eastwest;" parent="MpQF8HATD3lKGOXZfI80-19" vertex="1"><mxGeometry y="78" width="360" height="26" as="geometry"/></mxCell><mxCell id="MpQF8HATD3lKGOXZfI80-13" value="" style="line;strokeWidth=1;fillColor=none;align=left;verticalAlign=middle;spacingTop=-1;spacingLeft=3;spacingRight=3;rotatable=0;labelPosition=right;points=[];portConstraint=eastwest;strokeColor=inherit;" parent="MpQF8HATD3lKGOXZfI80-11" vertex="1"><mxGeometry y="130" width="360" height="74" as="geometry"/></mxCell><mxCell id="MpQF8HATD3lKGOXZfI80-14" value="+ method(type): type" style="text;strokeColor=none;fillColor=none;align=left;verticalAlign=top;spacingLeft=4;spacingRight=4;overflow=hidden;rotatable=0;points=[[0,0.5],[1,0.5]];portConstraint=eastwest;" parent="MpQF8HATD3lKGOXZfI80-11" vertex="1"><mxGeometry y="204" width="360" height="60" as="geometry"/></mxCell></root></mxGraphModel>